<svg aria-hidden="true" style="position:absolute;width:0;height:0;overflow:hidden" xmlns="http://www.w3.org/2000/svg">
<defs>
<symbol id="github" viewBox="0 0 32 32"><path fill="#9617c5" style="fill:var(--color5, #9617c5)" d="M16 .396c-8.84 0-16 7.164-16 16 0 7.071 4.584 13.067 10.94 15.18.8.151 1.093-.344 1.093-.769 0-.38-.013-1.387-.02-2.72-4.451.965-5.389-2.147-5.389-2.147-.728-1.847-1.78-2.34-1.78-2.34-1.449-.992.112-.972.112-.972 1.607.112 2.451 1.648 2.451 1.648 1.427 2.447 3.745 1.74 4.66 1.331.144-1.035.556-1.74 1.013-2.14-3.553-.4-7.288-1.776-7.288-7.907 0-1.747.62-3.173 1.647-4.293-.18-.404-.72-2.031.14-4.235 0 0 1.34-.429 4.4 1.64 1.28-.356 2.64-.532 4-.54 1.36.008 2.72.184 4 .54 3.04-2.069 4.38-1.64 4.38-1.64.86 2.204.32 3.831.16 4.235 1.02 1.12 1.64 2.547 1.64 4.293 0 6.147-3.74 7.5-7.3 7.893.56.48 1.08 1.461 1.08 2.96 0 2.141-.02 3.861-.02 4.381 0 .42.28.92 1.1.76C27.42 29.455 32 23.455 32 16.395c0-8.836-7.164-16-16-16z"/></symbol>
<symbol id="gmail" viewBox="0 0 32 32"><path fill="#d14836" style="fill:var(--color1, #d14836)" d="M32 6v20c0 1.133-.867 2-2 2h-2V9.849l-12 8.617L4 9.849V28H2c-1.135 0-2-.867-2-2V6c0-.567.216-1.067.575-1.424A1.98 1.98 0 0 1 2 4h.667L16 13.667 29.333 4H30c.567 0 1.067.216 1.425.576.36.357.575.857.575 1.424z"/></symbol>
<symbol id="linkedin" viewBox="0 0 32 32"><path fill="#0077b5" style="fill:var(--color2, #0077b5)" d="M27.263 27.269h-4.739v-7.425c0-1.771-.036-4.049-2.469-4.049-2.471 0-2.848 1.927-2.848 3.919v7.556h-4.739V12.001h4.552v2.081h.061c.636-1.2 2.183-2.467 4.493-2.467 4.801 0 5.689 3.16 5.689 7.273zM7.116 9.911a2.75 2.75 0 0 1-2.751-2.753 2.752 2.752 0 1 1 2.751 2.753zm2.376 17.358H4.74V12h4.752zM29.633 0H2.361C1.056 0 0 1.032 0 2.305v27.389c0 1.275 1.056 2.305 2.361 2.305h27.268c1.304 0 2.371-1.031 2.371-2.305V2.305C32 1.032 30.933 0 29.629 0z"/></symbol>
<symbol id="skype" viewBox="0 0 32 32"><path fill="#00aff0" style="fill:var(--color3, #00aff0)" d="M16.092 25.165c-5.364 0-7.76-2.639-7.76-4.619 0-1.02.748-1.728 1.777-1.728 2.297 0 1.697 3.303 5.983 3.303 2.188 0 3.4-1.193 3.4-2.415 0-.735-.359-1.547-1.805-1.905l-4.768-1.193c-3.84-.965-4.537-3.048-4.537-5.001 0-4.063 3.815-5.588 7.399-5.588 3.295 0 7.191 1.831 7.191 4.265 0 1.045-.917 1.653-1.937 1.653-1.959 0-1.597-2.716-5.552-2.716-1.959 0-3.056.885-3.056 2.156s1.537 1.677 2.876 1.983l3.516.783c3.855.865 4.832 3.128 4.832 5.259 0 3.301-2.536 5.765-7.629 5.765zm14.707-6.508-.039.18-.059-.32c.02.06.059.099.079.16.16-.9.241-1.817.241-2.736a15.107 15.107 0 0 0-4.433-10.688c-1.399-1.377-2.996-2.475-4.793-3.235-1.757-.841-3.735-1.24-5.771-1.24-.96 0-1.925.093-2.857.272l.159.08-.319-.044.159-.033A8.89 8.89 0 0 0 8.975 0 8.86 8.86 0 0 0 2.66 2.623 8.905 8.905 0 0 0 .043 8.955c0 1.524.389 3.02 1.125 4.344l.027-.165.055.319-.08-.153a15.208 15.208 0 0 0 .95 8.495 14.558 14.558 0 0 0 3.236 4.812c1.379 1.4 2.996 2.476 4.793 3.256 1.859.8 3.836 1.197 5.872 1.197.879 0 1.779-.08 2.636-.239l-.159-.083.32.061-.18.04A8.853 8.853 0 0 0 23.03 32c2.377 0 4.612-.92 6.311-2.617a8.911 8.911 0 0 0 2.616-6.332 9.04 9.04 0 0 0-1.137-4.355z"/></symbol>
<symbol id="telegram" viewBox="0 0 32 32"><path fill="#2ca5e0" style="fill:var(--color4, #2ca5e0)" d="m31.88 5.053-4.813 22.733c-.333 1.613-1.307 2-2.667 1.253l-7.333-5.427-3.547 3.427c-.4.4-.733.747-1.467.747-.96 0-.8-.36-1.12-1.267L8.4 18.266l-7.267-2.267c-1.573-.467-1.587-1.547.347-2.333L29.827 2.733c1.293-.573 2.533.32 2.053 2.32z"/></symbol>
<symbol id="profile" viewBox="0 0 32 32"><path fill="#d14836" style="fill:var(--color6, #d14836)" d="M27 0H3C1.35 0 0 1.35 0 3v26c0 1.65 1.35 3 3 3h24c1.65 0 3-1.35 3-3V3c0-1.65-1.35-3-3-3zm-1 28H4V4h22v24zM8 18h14v2H8zm0 4h14v2H8zm2-13a3 3 0 1 1 6 0 3 3 0 0 1-6 0zm5 3h-4c-1.65 0-3 .9-3 2v2h10v-2c0-1.1-1.35-2-3-2z"/></symbol>
<symbol id="mobile" viewBox="0 0 32 32"><path fill="#09c724" style="fill:var(--color7, #09c724)" d="M23 0H9C7.35 0 6 1.35 6 3v26c0 1.65 1.35 3 3 3h14c1.65 0 3-1.35 3-3V3c0-1.65-1.35-3-3-3zM12 1.5h8v1h-8v-1zM16 30a2 2 0 1 1-.001-3.999A2 2 0 0 1 16 30zm8-6H8V4h16v20z"/></symbol></defs></svg>